# xmcd CD database file
#
# Track frame offsets:
#	150
#	13399
#	26086
#	38212
#	51880
#	65124
#	77842
#	91637
#	104762
#	117079
#	130732
#	143331
#	155826
#	169341
#	182456
#	194563
#	207359
#	219867
#
# Disc length: 3105 seconds
#
# Revision: 0
# Processed by: cddbd v1.4PL0 Copyright (c) Steve Scherf et al.
# Submitted via: CDex 1.40Release
#
DISCID=020c1f12
DTITLE=Sonny Boy Williamson - The Great Sonny Boy Williamson (The first)
DYEAR=2000
DGENRE=Blues
TTITLE0=Good Morning Little School Girl
TTITLE1=Dealing With The Devil
TTITLE2=Early In The Morning
TTITLE3=Western Union Man
TTITLE4=Jackson Blues
TTITLE5=Sonny Boy´s Jump
TTITLE6=Coal And Iceman Blues
TTITLE7=Whiskey Headed Blues
TTITLE8=Life Time Blues
TTITLE9=Springtime Blues
TTITLE10=Good Gravy
TTITLE11=I Have Got To Go
TTITLE12=Moonshine
TTITLE13=Thinking My Blues Away
TTITLE14=She Don´t Love Me That Way
TTITLE15=Tell Me Baby
TTITLE16=Little Low Woman Blues
TTITLE17=I´m Tired Truckin´My Blues Away
EXTD=YEAR: 2000 ID3G: 0
EXTT0=
EXTT1=
EXTT2=
EXTT3=
EXTT4=
EXTT5=
EXTT6=
EXTT7=
EXTT8=
EXTT9=
EXTT10=
EXTT11=
EXTT12=
EXTT13=
EXTT14=
EXTT15=
EXTT16=
EXTT17=
PLAYORDER=
